<?xml version="1.0" standalone="no"?>
<!DOCTYPE svg PUBLIC "-//W3C//DTD SVG 20010904//EN"
 "http://www.w3.org/TR/2001/REC-SVG-20010904/DTD/svg10.dtd">
<svg version="1.0" xmlns="http://www.w3.org/2000/svg"
 width="172.000000pt" height="172.000000pt" viewBox="0 0 172.000000 172.000000"
 preserveAspectRatio="xMidYMid meet">
<metadata>
Created by potrace 1.14, written by Peter Selinger 2001-2017
</metadata>
<g transform="translate(0.000000,172.000000) scale(0.100000,-0.100000)"
fill="#000000" stroke="none">
<path d="M867 1714 c-2 -5 -4 -135 -4 -289 l0 -280 37 -3 37 -2 32 122 c18 68
34 130 37 139 3 12 -4 18 -25 22 -32 7 -31 2 -16 92 3 17 8 50 11 75 3 25 9
62 14 83 4 20 5 37 1 37 -3 1 -31 3 -62 6 -31 4 -59 2 -62 -2z"/>
<path d="M657 1695 c-27 -7 -51 -15 -53 -18 -2 -2 16 -63 40 -136 l44 -132
-35 -14 c-20 -8 -39 -15 -43 -15 -5 0 -36 54 -70 120 -33 66 -66 120 -72 120
-6 0 -33 -14 -60 -31 l-48 -31 31 -42 c17 -22 54 -74 82 -114 51 -72 56 -75
98 -58 10 5 20 -2 30 -21 36 -71 120 -208 127 -207 17 1 62 17 62 21 0 3 -16
64 -35 135 -19 71 -33 134 -30 139 4 5 16 9 29 9 l23 0 -23 138 c-13 75 -24
140 -24 145 0 9 -15 8 -73 -8z"/>
<path d="M1125 1671 c-10 -17 -87 -263 -83 -267 2 -2 21 -10 41 -19 l37 -15
64 129 65 128 -27 13 c-70 32 -91 39 -97 31z"/>
<path d="M1281 1444 l-82 -114 -27 14 c-29 15 -28 16 -143 -189 l-28 -49 31
-19 31 -19 201 201 200 200 -24 27 c-14 14 -37 34 -51 44 l-25 19 -83 -115z"/>
<path d="M240 1453 c0 -5 -14 -22 -30 -40 -17 -18 -30 -36 -30 -41 0 -6 145
-118 213 -164 7 -4 5 -15 -5 -30 -18 -27 -20 -24 56 -68 17 -9 64 -37 105 -60
l74 -43 18 24 c10 13 19 27 19 31 0 5 -88 96 -195 203 -170 171 -225 216 -225
188z"/>
<path d="M1529 1352 c-13 -9 -66 -47 -117 -85 -93 -68 -93 -68 -78 -92 l16
-24 -120 -71 c-66 -39 -120 -75 -120 -80 0 -21 24 -60 35 -56 20 7 244 66 253
66 6 0 13 -11 16 -25 4 -14 12 -25 19 -25 19 0 260 41 267 45 8 5 -20 125 -29
125 -3 0 -65 -20 -137 -43 l-131 -44 -14 36 c-8 20 -15 39 -17 42 -1 3 53 34
120 69 68 34 125 64 126 66 5 3 -26 59 -49 91 -15 21 -17 21 -40 5z"/>
<path d="M84 1213 c-38 -91 -49 -77 104 -127 l137 -44 18 40 c9 23 16 42 15
43 -6 6 -248 125 -253 125 -2 0 -12 -17 -21 -37z"/>
<path d="M308 988 c-2 -18 -9 -23 -33 -22 -29 0 -96 8 -160 19 -16 3 -45 7
-62 10 -27 5 -33 3 -34 -12 0 -10 -3 -39 -5 -65 -5 -45 -4 -48 18 -48 107 -1
372 -2 454 -1 l102 1 4 34 4 34 -132 36 c-72 20 -136 36 -142 36 -6 0 -12 -10
-14 -22z"/>
<path d="M1137 837 c-3 -18 -2 -35 2 -39 3 -4 51 -18 106 -33 185 -49 165 -47
172 -14 6 32 0 31 98 14 76 -13 187 -27 190 -23 2 2 5 30 7 63 l3 60 -286 2
-287 2 -5 -32z"/>
<path d="M500 770 c-36 -11 -74 -22 -85 -24 -11 -3 -29 -7 -40 -10 -11 -2 -27
-7 -37 -11 -12 -5 -18 1 -23 25 -5 22 -11 30 -23 26 -16 -4 -42 -8 -137 -22
-149 -21 -142 -14 -113 -110 l13 -41 134 43 c74 24 135 43 135 42 1 -2 9 -20
19 -40 l17 -38 -63 -32 c-34 -17 -88 -45 -119 -60 -31 -16 -60 -33 -63 -38 -6
-10 39 -95 56 -106 5 -3 61 32 123 78 113 82 114 83 99 107 -13 20 -13 25 -2
32 8 5 60 36 116 69 56 33 105 64 108 69 9 15 -17 61 -34 60 -9 0 -45 -9 -81
-19z"/>
<path d="M1082 701 l-21 -28 99 -99 c54 -55 145 -145 202 -202 l104 -103 33
33 c57 58 57 63 -1 106 -29 21 -81 59 -114 84 -56 40 -60 46 -48 63 8 10 14
22 14 26 0 6 -106 69 -241 145 -3 2 -15 -10 -27 -25z"/>
<path d="M1384 654 c-9 -20 -12 -40 -7 -44 14 -14 228 -120 241 -120 11 0 37
50 48 95 5 20 -6 25 -124 63 -71 23 -132 42 -136 42 -4 0 -14 -16 -22 -36z"/>
<path d="M467 471 c-109 -109 -197 -203 -197 -208 0 -10 82 -83 93 -83 2 0 17
19 33 43 16 23 31 44 35 47 3 3 27 35 53 72 47 67 48 67 72 51 23 -15 26 -15
39 3 8 10 15 22 15 27 0 4 10 24 23 45 65 103 88 154 76 169 -35 42 -38 39
-242 -166z"/>
<path d="M972 613 c-17 -7 -32 -16 -32 -20 0 -5 52 -205 66 -255 4 -13 0 -18
-13 -18 -38 0 -41 -16 -21 -133 28 -173 22 -160 71 -152 93 16 90 8 47 142
-21 65 -41 125 -45 134 -4 12 4 20 32 32 21 8 42 13 46 10 4 -2 35 -59 68
-125 l60 -119 52 29 c29 17 52 36 51 44 -1 14 -152 228 -161 228 -2 0 -14 -7
-26 -15 -24 -15 -16 -27 -147 204 -15 26 -17 27 -48 14z"/>
<path d="M756 463 c-39 -142 -39 -152 6 -153 10 0 15 -6 13 -12 -2 -7 -7 -31
-9 -53 -8 -55 -16 -112 -26 -165 -5 -25 -6 -48 -2 -52 6 -5 92 -13 117 -9 10
1 15 555 5 564 -3 2 -19 7 -36 10 l-31 6 -37 -136z"/>
<path d="M542 234 c-35 -70 -62 -127 -60 -128 22 -16 112 -46 118 -39 4 4 24
60 45 123 21 63 40 121 43 128 4 11 -52 42 -75 42 -5 0 -37 -57 -71 -126z"/>
</g>
</svg>
